<svg id="Capa_1" enable-background="new 0 0 511.965 511.965" height="512" viewBox="0 0 511.965 511.965" width="512" xmlns="http://www.w3.org/2000/svg"><g><g><path d="m12.093 220.468c1.602 14.613 13.438 26.029 28.105 27.055 1.213.086 2.419.171 3.624.249 8.943.606 15.896 8.033 15.896 17v33.891c0 11.401 13.049 17.871 22.117 10.965 16.549-12.606 38.565-31.356 52.073-50.798 3.196-4.604 8.477-7.287 14.084-7.256 41.59.21 83.18-1.128 124.77-4.052 11.595-.809 21.44-8.096 25.826-18.345 1.167-2.691 1.944-5.599 2.279-8.64 6.159-56.265 6.159-112.537 0-168.809-1.602-14.597-13.446-25.959-28.09-26.985-61.957-4.347-123.907-5.218-185.856-2.613-15.569.646-31.146 1.516-46.715 2.613-14.651 1.027-26.503 12.389-28.105 26.986-6.159 56.249-6.159 112.491-.008 168.739z" fill="#e91e63"/><path d="m499.587 393.714c-1.699 15.499-14.253 27.607-29.809 28.696-1.287.091-2.565.181-3.844.264-9.486.643-16.86 8.521-16.86 18.031v35.946c0 12.092-13.841 18.955-23.458 11.63-17.552-13.371-40.903-33.257-55.231-53.878-3.39-4.883-8.991-7.729-14.938-7.696-44.112.223-88.224-1.196-132.336-4.297-12.298-.858-22.741-8.586-27.393-19.458-1.237-2.854-2.062-5.939-2.417-9.164-6.533-59.677-6.533-119.361 0-179.046 1.699-15.482 14.261-27.533 29.793-28.622 65.714-4.611 131.421-5.535 197.127-2.772 16.513.685 33.034 1.608 49.548 2.772 15.54 1.089 28.11 13.14 29.809 28.622 6.533 59.66 6.533 119.312.009 178.972z" fill="#ffc250"/></g><g><path d="m507.034 213.921c-2.097-19.098-17.548-33.937-36.739-35.283-16.719-1.175-33.463-2.111-49.761-2.782-35.997-1.512-72.264-1.907-108.498-1.205 2.022-41.118.777-82.703-3.712-123.739-1.995-18.214-16.728-32.368-35.03-33.655-62.027-4.345-124.839-5.227-186.68-2.622-5.133.209-10.356.453-15.527.724-4.137.217-7.314 3.746-7.097 7.882.217 4.137 3.763 7.309 7.882 7.097 5.113-.268 10.278-.509 15.363-.717 61.294-2.583 123.541-1.708 185.008 2.598 11.063.778 19.966 9.326 21.171 20.324 4.442 40.611 5.641 81.771 3.582 122.454-24.876.693-49.716 1.905-74.421 3.639-19.186 1.345-34.633 16.184-36.731 35.286-1.09 9.964-1.981 19.953-2.709 29.955-11.509.188-23.276.26-35.105.2-.045 0-.09 0-.135 0-8.07 0-15.595 3.91-20.144 10.47-13.027 18.745-34.629 37.055-50.457 49.114-2.796 2.131-5.54 1.151-6.589.632-1.051-.521-3.496-2.112-3.496-5.636v-33.88c0-12.858-10.045-23.617-22.948-24.498-.753-.043-1.503-.095-2.257-.147l-1.28-.087c-11.055-.776-19.963-9.355-21.18-20.393-6.063-55.458-6.06-111.682.01-167.108 1.206-10.996 10.114-19.544 21.242-20.327.461-.036.913-.063 1.374-.09 4.135-.244 7.29-3.793 7.046-7.928-.243-4.135-3.781-7.289-7.928-7.046-.559.033-1.106.066-1.605.106-18.307 1.286-33.043 15.44-35.039 33.654-6.188 56.51-6.192 113.831-.01 170.378 2.012 18.254 16.749 32.436 35.074 33.722l1.264.086c.81.056 1.615.111 2.346.153 4.986.341 8.891 4.525 8.891 9.527v33.88c0 8.151 4.536 15.46 11.838 19.077 3.02 1.496 6.254 2.232 9.468 2.232 4.556 0 9.07-1.479 12.869-4.374 16.685-12.712 39.542-32.138 53.688-52.492 1.759-2.537 4.744-4.049 7.879-4.024 11.519.058 22.983-.007 34.21-.181-2.468 45.239-1.241 90.716 3.684 135.725.443 3.959 1.452 7.767 2.979 11.276 5.884 13.754 18.82 22.947 33.759 23.992 43.921 3.086 88.627 4.54 132.917 4.318h.073c3.478 0 6.71 1.667 8.656 4.469 14.967 21.55 39.174 42.113 56.841 55.565 3.945 3.009 8.634 4.547 13.367 4.547 3.334 0 6.691-.764 9.825-2.315 7.591-3.757 12.307-11.354 12.307-19.825v-35.94c0-5.541 4.337-10.178 9.828-10.555 1.208-.076 2.414-.16 3.63-.244l.276-.02c19.189-1.345 34.642-16.218 36.74-35.354.223-2.004.436-4.008.638-6.013.417-4.121-2.586-7.8-6.707-8.216-4.13-.414-7.8 2.587-8.217 6.708-.198 1.956-.405 3.911-.623 5.876-1.309 11.931-10.932 21.199-22.877 22.036l-.273.019c-1.18.083-2.351.164-3.567.24-13.373.917-23.848 12.127-23.848 25.522v35.94c0 2.769-1.48 5.154-3.961 6.382-2.467 1.222-5.25.956-7.446-.719-16.813-12.801-39.762-32.247-53.613-52.192-4.754-6.842-12.584-10.911-20.963-10.911-.058 0-.116 0-.174 0-43.901.221-88.229-1.221-131.779-4.282-9.304-.65-17.357-6.371-21.036-14.971-.947-2.177-1.567-4.533-1.842-6.983-6.44-58.858-6.44-118.55 0-177.416 1.305-11.885 10.924-21.119 22.87-21.957 65.096-4.567 131.136-5.495 196.287-2.758 16.159.666 32.758 1.593 49.334 2.758 11.952.838 21.574 10.072 22.879 21.954 5.15 47.079 6.197 94.802 3.111 141.844-.271 4.133 2.86 7.704 6.993 7.975 4.129.274 7.704-2.859 7.976-6.993 3.141-47.909 2.075-96.511-3.171-144.458z"/><path d="m306.285 284.649c0-12.866-6.303-23.334-14.05-23.334-7.748 0-14.051 10.468-14.051 23.334s6.303 23.334 14.051 23.334c7.747 0 14.05-10.468 14.05-23.334z"/><path d="m414.696 284.649c0-12.866-6.303-23.334-14.05-23.334-7.748 0-14.051 10.468-14.051 23.334s6.303 23.334 14.051 23.334c7.747 0 14.05-10.468 14.05-23.334z"/><path d="m346.44 368.867c23.092 0 43.813-13.755 52.787-35.042 1.609-3.817-.181-8.215-3.997-9.825-3.82-1.608-8.216.181-9.825 3.998-6.625 15.715-21.92 25.87-38.965 25.87-17.044 0-32.339-10.155-38.965-25.87-1.61-3.817-6.01-5.606-9.825-3.997-3.816 1.609-5.606 6.008-3.997 9.825 8.977 21.286 29.696 35.041 52.787 35.041z"/><path d="m56.705 83.51h169.56c4.142 0 7.5-3.358 7.5-7.5s-3.358-7.5-7.5-7.5h-169.56c-4.142 0-7.5 3.358-7.5 7.5s3.358 7.5 7.5 7.5z"/><path d="m233.765 119.928c0-4.142-3.358-7.5-7.5-7.5h-169.56c-4.142 0-7.5 3.358-7.5 7.5s3.358 7.5 7.5 7.5h169.56c4.143 0 7.5-3.357 7.5-7.5z"/><path d="m56.705 156.346c-4.142 0-7.5 3.358-7.5 7.5s3.358 7.5 7.5 7.5h60.501c4.142 0 7.5-3.358 7.5-7.5s-3.358-7.5-7.5-7.5z"/></g></g></svg>