<svg height="512" viewBox="0 0 512 512" width="512" xmlns="http://www.w3.org/2000/svg"><g id="filled_outline" data-name="filled outline"><path d="m96 168h-72a8 8 0 0 1 0-16h72a8 8 0 0 1 0 16z" fill="#cbcbcb"/><path d="m128 120h64v80h-64z" fill="#cbcbcb"/><path d="m160 120h32v80h-32z" fill="#eaeae8"/><path d="m344 240 16 32v24h32v-44a12 12 0 0 0 -12-12z" fill="#04957c"/><path d="m429.411 99.435h-237.411v128h40l40 16h108a12 12 0 0 1 12 12v108l-16 16 16 24h72a24 24 0 0 0 24-24v-149.244a177.941 177.941 0 0 0 -7.868-52.328l-16.313-53.015a36 36 0 0 0 -34.408-25.413z" fill="#2ad3b3"/><path d="m469.71 144h-37.71a8 8 0 0 1 0-16h32.79z" fill="#04957c"/><path d="m479.56 176h-47.56a8 8 0 0 1 0-16h42.63z" fill="#04957c"/><path d="m486.6 208h-54.6a8 8 0 0 1 0-16h51.84q1.77 7.935 2.76 16z" fill="#04957c"/><path d="m352 99.44v144h-80l-40-16h-8v-128z" fill="#27c5a7"/><path d="m352 99.44v144h-80l-40-16h-8v-128z" fill="#27c5a7"/><path d="m296 232v11.44h-16v-11.44a8 8 0 0 1 16 0z" fill="#04957c"/><path d="m328 232v11.44h-16v-11.44a8 8 0 0 1 16 0z" fill="#04957c"/><path d="m128 200-32-8v-64l32-8z" fill="#eaeae8"/><path d="m128 136h32v16h-32z" fill="#a8a8a8"/><path d="m128 168h32v16h-32z" fill="#a8a8a8"/><g fill="#04957c"><path d="m288 160a8 8 0 0 1 -8-8v-16a8 8 0 0 1 16 0v16a8 8 0 0 1 -8 8z"/><path d="m320 160a8 8 0 0 1 -8-8v-16a8 8 0 0 1 16 0v16a8 8 0 0 1 -8 8z"/><path d="m288 208a8 8 0 0 1 -8-8v-16a8 8 0 0 1 16 0v16a8 8 0 0 1 -8 8z"/><path d="m320 208a8 8 0 0 1 -8-8v-16a8 8 0 0 1 16 0v16a8 8 0 0 1 -8 8z"/><path d="m442 248h46a0 0 0 0 1 0 0v112a0 0 0 0 1 0 0h-46a18 18 0 0 1 -18-18v-76a18 18 0 0 1 18-18z"/></g><circle cx="456" cy="272" fill="#27c5a7" r="8"/><circle cx="456" cy="304" fill="#27c5a7" r="8"/><path d="m448 336a8 8 0 1 1 8 8 8 8 0 0 1 -8-8" fill="#27c5a7"/><path d="m32 240h-8a8 8 0 0 1 0-16h8a8 8 0 0 1 0 16z" fill="#6ee7f5"/><path d="m88 240h-24a8 8 0 0 1 0-16h24a8 8 0 0 1 0 16z" fill="#6ee7f5"/><path d="m192 128h32v16h-32z" fill="#04957c"/><path d="m192 160h32v16h-32z" fill="#04957c"/><path d="m192 192h32v16h-32z" fill="#04957c"/><path d="m471.466 127.061a43.778 43.778 0 0 0 -42.055-31.061h-237.411a8 8 0 0 0 -8 8v8s-57.9.229-57.94.239l-32 8a8 8 0 0 0 -6.06 7.761v24h-64a8 8 0 0 0 0 16h64v24a8 8 0 0 0 6.06 7.761l32 8c.035.009.072.011.107.02.227.053 57.833.219 57.833.219v24a8 8 0 0 0 8 8h38.459l38.57 15.428a8 8 0 0 0 2.971.572h67.056l12.944 25.889v22.111a8 8 0 0 0 8 8h24v52.687l-13.657 13.656a8 8 0 0 0 -1 10.095l16 24a8 8 0 0 0 6.657 3.562h72a32.036 32.036 0 0 0 32-32v-149.244a185.807 185.807 0 0 0 -8.222-54.681zm-255.466 32.939h-16v-16h16zm-16 16h16v16h-16zm0-64h16v16h-16zm-64 40h16v16h-16zm16-16h-16v-8h16zm-48-1.754 16-4v59.508l-16-4zm32 49.754h16v8h-16zm32-56h16v64h-16zm32 96v-16h16v16zm34.971.572a8 8 0 0 0 -2.971-.572v-112h112v128h-16v-8a8 8 0 0 0 -16 0v8h-16v-8a8 8 0 0 0 -16 0v8h-6.459zm133.029 71.428v-16a7.994 7.994 0 0 0 -.845-3.578l-10.211-20.422h23.056a4 4 0 0 1 4 4v36zm96 104h-67.719l-9.987-14.98 11.363-11.363a8 8 0 0 0 2.343-5.657v-108a20.023 20.023 0 0 0 -20-20h-20v-128h69.411a27.825 27.825 0 0 1 25.289 16h-22.7a8 8 0 0 0 0 16h27.938l4.922 16h-32.86a8 8 0 0 0 0 16h37.784s4.114 13.582 4.743 16h-42.527a8 8 0 0 0 0 16h45.875a169.925 169.925 0 0 1 2.125 26.756v5.244h-38a26.029 26.029 0 0 0 -26 26v76a26.029 26.029 0 0 0 26 26h38v16a16.019 16.019 0 0 1 -16 16zm16-48h-38a10.011 10.011 0 0 1 -10-10v-76a10.011 10.011 0 0 1 10-10h38z"/><path d="m288 160a8 8 0 0 0 8-8v-16a8 8 0 0 0 -16 0v16a8 8 0 0 0 8 8z"/><path d="m320 160a8 8 0 0 0 8-8v-16a8 8 0 0 0 -16 0v16a8 8 0 0 0 8 8z"/><path d="m288 208a8 8 0 0 0 8-8v-16a8 8 0 0 0 -16 0v16a8 8 0 0 0 8 8z"/><path d="m320 208a8 8 0 0 0 8-8v-16a8 8 0 0 0 -16 0v16a8 8 0 0 0 8 8z"/><circle cx="456" cy="272" r="8"/><circle cx="456" cy="304" r="8"/><circle cx="456" cy="336" r="8"/><path d="m32 224h-8a8 8 0 0 0 0 16h8a8 8 0 0 0 0-16z"/><path d="m88 240a8 8 0 0 0 0-16h-24a8 8 0 0 0 0 16z"/></g></svg>