<?xml version="1.0" encoding="iso-8859-1"?>
<!-- Generator: Adobe Illustrator 19.0.0, SVG Export Plug-In . SVG Version: 6.00 Build 0)  -->
<svg version="1.1" id="Capa_1" xmlns="http://www.w3.org/2000/svg" xmlns:xlink="http://www.w3.org/1999/xlink" x="0px" fill="gray" y="0px"
	 viewBox="0 0 512 512" style="enable-background:new 0 0 512 512;" xml:space="preserve">
<g>
	<g>
		<path d="M256,0C114.848,0,0,114.848,0,256s114.848,256,256,256s256-114.848,256-256S397.152,0,256,0z M256,480
			C132.48,480,32,379.52,32,256S132.48,32,256,32s224,100.48,224,224S379.52,480,256,480z"/>
	</g>
</g>
<g>
	<g>
		<path d="M368,272c0,61.76-50.24,112-112,112s-112-50.24-112-112h-32c0,79.392,64.608,144,144,144s144-64.608,144-144H368z"/>
	</g>
</g>
<g>
	<g>
		<path d="M219.312,196.688l-48-48l-22.624,22.624L169.376,192H128v32h80c6.464,0,12.304-3.904,14.784-9.872
			C225.264,208.144,223.888,201.264,219.312,196.688z"/>
	</g>
</g>
<g>
	<g>
		<path d="M342.624,192l20.688-20.688l-22.624-22.624l-48,48c-4.576,4.576-5.952,11.456-3.472,17.44
			c2.48,5.968,8.32,9.872,14.784,9.872h80v-32H342.624z"/>
	</g>
</g>
<g>
</g>
<g>
</g>
<g>
</g>
<g>
</g>
<g>
</g>
<g>
</g>
<g>
</g>
<g>
</g>
<g>
</g>
<g>
</g>
<g>
</g>
<g>
</g>
<g>
</g>
<g>
</g>
<g>
</g>
</svg>
