<svg id="Layer_5" enable-background="new 0 0 64 64" height="512" viewBox="0 0 64 64" width="512" xmlns="http://www.w3.org/2000/svg"><g><g><g><path d="m45.31 43.7 6.69 10.3-8-1-3 8-6.26-11.47c.37-.13.73-.29 1.08-.47 2.17-1.13 5.94-3.16 9.49-5.36z" fill="#b4dd7f"/></g><g><path d="m29.26 49.53-6.26 11.47-3-8-8 1 6.69-10.3c3.55 2.2 7.32 4.23 9.49 5.36.35.18.71.34 1.08.47z" fill="#b4dd7f"/></g><g><path d="m34.74 49.53c-.88.31-1.8.47-2.74.47s-1.86-.16-2.74-.47c-.37-.13-.73-.29-1.08-.47-2.17-1.13-5.94-3.16-9.49-5.36-4.53-2.8-8.69-5.88-8.69-7.7 0-4 4-30 4-30h6.6c2.07 0 4.11-.35 6.04-1.03 1.92-.67 3.74-1.67 5.36-2.97 3.24 2.59 7.26 4 11.4 4h6.6s4 26 4 30c0 1.82-4.16 4.9-8.69 7.7-3.55 2.2-7.32 4.23-9.49 5.36-.35.18-.71.34-1.08.47z" fill="#fcd770"/></g><g><path d="m46.56 10c1.4 9.25 3.17 21.67 3.41 25.32-1.27 1.46-6.21 5.08-16 10.2-.61.32-1.27.48-1.97.48s-1.36-.16-1.97-.48c-9.79-5.12-14.73-8.74-16-10.2.24-3.65 2.01-16.07 3.41-25.32h3.16c4.01 0 7.97-1.1 11.4-3.15 3.43 2.05 7.39 3.15 11.4 3.15z" fill="#ffeaa7"/></g><g><path d="m42 30.45v.55c0 2.76-1.12 5.26-2.93 7.07s-4.31 2.93-7.07 2.93c-5.52 0-10-4.48-10-10v-.55c0-1.61.39-3.2 1.13-4.62l7.3-14.01c.36-.51.94-.82 1.57-.82s1.21.31 1.57.82l7.3 14.01c.74 1.42 1.13 3.01 1.13 4.62z" fill="#ff826e"/></g><g><path d="m38 27v4h-4v4h-4v-4h-4v-4h4v-4h4v4z" fill="#e6e9ed"/></g></g><g><path d="m34.453 11.362-.063-.104c-.54-.788-1.434-1.258-2.39-1.258s-1.85.47-2.391 1.258l-7.363 14.107c-.815 1.564-1.246 3.323-1.246 5.085v.55c0 6.065 4.935 11 11 11s11-4.935 11-11v-.55c0-1.763-.431-3.521-1.246-5.085zm6.547 19.638c0 4.962-4.038 9-9 9s-9-4.038-9-9v-.55c0-1.442.353-2.881 1.02-4.161l7.268-13.939c.34-.44 1.086-.44 1.426 0l7.266 13.94c.667 1.28 1.02 2.718 1.02 4.161z"/><path d="m35 22h-6v4h-4v6h4v4h6v-4h4v-6h-4zm2 6v2h-4v4h-2v-4h-4v-2h4v-4h2v4z"/><path d="m50.727 35.974.27-.311-.028-.411c-.244-3.641-1.993-15.959-3.417-25.401l-.129-.851h-4.02c-3.824 0-7.59-1.039-10.892-3.005l-.511-.305-.512.305c-3.301 1.966-7.068 3.005-10.891 3.005h-4.02l-.128.851c-1.424 9.442-3.173 21.76-3.417 25.401l-.028.411.27.311c1.4 1.613 6.507 5.313 16.293 10.43.757.395 1.576.596 2.433.596.858 0 1.677-.201 2.434-.597 9.787-5.116 14.893-8.816 16.293-10.429zm-17.22 8.657c-.937.49-2.078.489-3.015 0-9.472-4.953-14.005-8.274-15.434-9.678.326-3.924 1.899-15.028 3.239-23.953h2.299c3.988 0 7.918-1.032 11.404-2.991 3.486 1.959 7.416 2.991 11.403 2.991h2.299c1.339 8.925 2.913 20.029 3.239 23.954-1.428 1.403-5.961 4.725-15.434 9.677z"/><path d="m55 36c0-4.03-3.848-29.087-4.012-30.152l-.13-.848h-7.455c-3.903 0-7.731-1.343-10.778-3.781l-.625-.5-.625.5c-3.047 2.438-6.875 3.781-10.778 3.781h-7.455l-.13.848c-.164 1.065-4.012 26.122-4.012 30.152 0 1.835 2.793 4.525 8.292 8.023l-7.303 11.236 9.352-1.169 3.49 9.308 6.916-12.68c.735.185 1.493.282 2.253.282s1.518-.097 2.253-.282l6.916 12.68 3.49-9.308 9.352 1.169-7.304-11.236c5.5-3.498 8.293-6.188 8.293-8.023zm-31.831 22.602-2.51-6.692-6.648.831 4.981-7.663c2.461 1.491 5.358 3.113 8.72 4.871.046.024.096.04.142.063zm5.47-10.426c-12.119-6.337-17.639-10.754-17.639-12.176 0-3.477 3.172-24.494 3.859-29h5.738c4.092 0 8.111-1.323 11.403-3.74 3.292 2.417 7.311 3.74 11.403 3.74h5.738c.687 4.506 3.859 25.523 3.859 29 0 1.422-5.52 5.839-17.639 12.176-2.063 1.078-4.659 1.078-6.722 0zm21.35 4.565-6.648-.831-2.51 6.692-4.685-8.59c.046-.023.096-.039.142-.063 3.362-1.758 6.259-3.379 8.72-4.871z"/></g></g></svg>