<svg id="wipe-sufraces" enable-background="new 0 0 300 300" height="512" viewBox="0 0 300 300" width="512" xmlns="http://www.w3.org/2000/svg"><g><circle cx="134.983" cy="141.379" fill="#edebdc" r="92"/><g><path d="m131.696 235.229-74.564-74.564c-10.652-10.652-10.652-27.922 0-38.574l74.564-74.564c10.652-10.652 27.922-10.652 38.574 0l74.564 74.564c10.652 10.652 10.652 27.922 0 38.574l-74.564 74.564c-10.652 10.652-27.922 10.652-38.574 0z" fill="#9dc1e4"/><path d="m150.983 247.219c-8.355 0-16.207-3.254-22.113-9.162l-74.566-74.562c-5.906-5.906-9.16-13.762-9.16-22.115s3.254-16.209 9.16-22.115l74.566-74.562c5.906-5.908 13.758-9.162 22.113-9.162 8.352 0 16.207 3.254 22.113 9.162l74.566 74.562c12.191 12.195 12.191 32.035 0 44.23l-74.566 74.562c-5.906 5.908-13.762 9.162-22.113 9.162zm0-203.68c-6.219 0-12.062 2.422-16.457 6.818l-74.567 74.563c-9.074 9.076-9.074 23.842 0 32.918l74.566 74.562c4.395 4.396 10.238 6.818 16.457 6.818 6.215 0 12.059-2.422 16.457-6.818l74.566-74.562c9.07-9.076 9.07-23.842 0-32.918l-74.565-74.563c-4.399-4.396-10.242-6.818-16.457-6.818z" fill="#4c241d"/></g><g fill="#4c241d"><path d="m58.983 49.379c-2.211 0-4-1.791-4-4v-8c0-2.209 1.789-4 4-4s4 1.791 4 4v8c0 2.209-1.789 4-4 4z"/><path d="m58.983 73.379c-2.211 0-4-1.791-4-4v-8c0-2.209 1.789-4 4-4s4 1.791 4 4v8c0 2.209-1.789 4-4 4z"/><path d="m50.983 57.379h-8c-2.211 0-4-1.791-4-4s1.789-4 4-4h8c2.211 0 4 1.791 4 4s-1.789 4-4 4z"/><path d="m74.983 57.379h-8c-2.211 0-4-1.791-4-4s1.789-4 4-4h8c2.211 0 4 1.791 4 4s-1.789 4-4 4z"/><path d="m228.983 257.379c-7.719 0-14-6.281-14-14s6.281-14 14-14 14 6.281 14 14-6.281 14-14 14zm0-20c-3.309 0-6 2.691-6 6s2.691 6 6 6 6-2.691 6-6-2.692-6-6-6z"/><path d="m263.588 207.77c0 2.362-1.914 4.277-4.276 4.277s-4.276-1.915-4.276-4.277 1.914-4.276 4.276-4.276 4.276 1.915 4.276 4.276z"/></g><g><path d="m88.033 161.311 57.425-57.425c3.868-3.868 10.138-3.868 14.006 0 3.868 3.868 3.868 10.138 0 14.006l-29.646 29.646 42.018 42.018-33.955 33.955c-8.903 8.902-18.72 16.841-29.288 23.684l-23.828 15.426-44.352-44.352s14.677-21.602 17.165-34.711l16.977-60.194c1.047-5.518 6.123-9.33 11.714-8.799 6.047.575 10.451 5.992 9.779 12.03z" fill="#fff"/><path d="m84.764 266.621c-1.031 0-2.055-.398-2.828-1.172l-44.352-44.352c-1.359-1.357-1.559-3.488-.48-5.076.141-.209 14.238-21.074 16.543-33.209l17.055-60.535c1.363-7.254 8.227-12.422 15.945-11.695 4 .381 7.598 2.309 10.133 5.426 2.535 3.119 3.684 7.035 3.242 11.029-.02.152-.043.305-.078.457l-4.875 21.127 47.562-47.562c5.254-5.26 14.414-5.252 19.66 0 2.625 2.625 4.074 6.117 4.074 9.83 0 3.715-1.449 7.207-4.074 9.832l-26.816 26.818 39.188 39.189c1.562 1.562 1.562 4.094 0 5.656l-33.953 33.955c-9.082 9.084-19.156 17.23-29.941 24.213l-23.832 15.426c-.665.432-1.423.643-2.173.643zm-39.219-48.877 39.762 39.762 21.113-13.668c10.312-6.678 19.945-14.469 28.633-23.154l31.125-31.127-39.188-39.189c-1.562-1.562-1.562-4.094 0-5.656l29.645-29.646c1.113-1.115 1.73-2.598 1.73-4.176 0-1.576-.617-3.059-1.73-4.174-2.23-2.229-6.109-2.236-8.348 0l-57.426 57.424c-1.266 1.264-3.215 1.535-4.766.67-1.562-.865-2.359-2.658-1.961-4.398l7.953-34.465c.148-1.773-.387-3.504-1.516-4.891-1.172-1.441-2.836-2.332-4.684-2.508-3.625-.355-6.738 2.055-7.406 5.562l-17.055 60.535c-2.029 10.75-11.763 26.703-15.881 33.099z" fill="#4c241d"/></g><g><path d="m117.212 160.144 53.923-53.923c3.868-3.868 10.138-3.868 14.006 0 3.868 3.868 3.868 10.138 0 14.006l-53.923 53.923" fill="#fff"/><path d="m131.217 178.15c-1.023 0-2.047-.391-2.828-1.172-1.562-1.562-1.562-4.094 0-5.656l53.926-53.924c1.113-1.115 1.727-2.598 1.727-4.174 0-1.578-.613-3.061-1.727-4.176-2.305-2.301-6.047-2.301-8.352 0l-53.922 53.924c-1.562 1.562-4.094 1.562-5.656 0s-1.562-4.094 0-5.656l53.922-53.924c5.418-5.416 14.23-5.426 19.664-.002 2.625 2.627 4.07 6.119 4.07 9.834 0 3.713-1.445 7.205-4.07 9.83l-53.926 53.924c-.781.782-1.804 1.172-2.828 1.172z" fill="#4c241d"/></g><g><path d="m131.218 174.15 39.823-39.823c3.92-3.92 10.275-3.92 14.195 0 3.92 3.92 3.92 10.275 0 14.195l-39.822 39.823" fill="#fff"/><path d="m145.413 192.346c-1.023 0-2.047-.391-2.828-1.172-1.562-1.562-1.562-4.094 0-5.656l39.824-39.824c2.352-2.354 2.352-6.186 0-8.539-2.359-2.352-6.188-2.352-8.539 0l-39.824 39.824c-1.562 1.562-4.094 1.562-5.656 0s-1.562-4.094 0-5.656l39.824-39.824c5.465-5.471 14.371-5.473 19.852-.002 5.473 5.475 5.473 14.381 0 19.854l-39.824 39.824c-.783.78-1.806 1.171-2.829 1.171z" fill="#4c241d"/></g><g><path d="m143.266 190.493 30.488-30.488c3.815-3.816 10.001-3.816 13.817 0 3.816 3.815 3.816 10.002 0 13.817l-34.643 34.643" fill="#fff"/><path d="m152.928 212.465c-1.023 0-2.047-.391-2.828-1.172-1.562-1.562-1.562-4.094 0-5.656l34.641-34.643c1.09-1.09 1.691-2.539 1.691-4.08s-.602-2.99-1.691-4.078c-2.184-2.186-5.984-2.18-8.16-.002l-30.488 30.486c-1.562 1.562-4.094 1.562-5.656 0s-1.562-4.094 0-5.656l30.488-30.486c5.203-5.203 14.277-5.205 19.473.002 2.602 2.598 4.035 6.055 4.035 9.734 0 3.678-1.434 7.135-4.035 9.736l-34.641 34.643c-.782.781-1.805 1.172-2.829 1.172z" fill="#4c241d"/></g><g><path d="m224.525 78.254 24.591 7.273-24.591 7.273-5.409 22.727-5.408-22.727-24.592-7.273 24.592-7.273 5.408-22.727z" fill="#ffce56"/><path d="m219.116 119.527c-1.852 0-3.461-1.271-3.891-3.074l-4.871-20.473-22.371-6.617c-1.699-.502-2.867-2.064-2.867-3.836s1.168-3.334 2.867-3.836l22.371-6.617 4.871-20.473c.43-1.803 2.039-3.074 3.891-3.074s3.461 1.271 3.891 3.074l4.875 20.473 22.367 6.617c1.699.502 2.867 2.064 2.867 3.836s-1.168 3.334-2.867 3.836l-22.367 6.617-4.875 20.473c-.43 1.803-2.04 3.074-3.891 3.074zm-15.895-34 11.621 3.438c1.375.406 2.426 1.516 2.758 2.91l1.516 6.373 1.52-6.373c.332-1.395 1.383-2.504 2.758-2.91l11.621-3.438-11.621-3.438c-1.375-.406-2.426-1.516-2.758-2.91l-1.52-6.373-1.516 6.374c-.332 1.395-1.383 2.504-2.758 2.91z" fill="#4c241d"/></g></g></svg>