<svg height="512" viewBox="0 0 60 60" width="512" xmlns="http://www.w3.org/2000/svg"><g id="Page-1" fill="none" fill-rule="evenodd"><g id="004---Waterproof-Fabric" fill-rule="nonzero"><rect id="Rectangle-path" fill="#ffdc00" height="4" rx="2" width="58" x="1" y="55"/><path id="Shape" d="m57 55h-3c1.1045695 0 2 .8954305 2 2s-.8954305 2-2 2h3c1.1045695 0 2-.8954305 2-2s-.8954305-2-2-2z" fill="#fec108"/><rect id="Rectangle-path" fill="#ffdc00" height="4" rx="2" width="58" x="1" y="45"/><path id="Shape" d="m57 45h-3c1.1045695 0 2 .8954305 2 2s-.8954305 2-2 2h3c1.1045695 0 2-.8954305 2-2s-.8954305-2-2-2z" fill="#fec108"/><path id="Shape" d="m57 49-4 6h-50l4-6z" fill="#ff9801"/><path id="Shape" d="m54 49-4 6h3l4-6z" fill="#f57c00"/><path id="Shape" d="m40 19c0 5.5228475-4.4771525 10-10 10s-10-4.4771525-10-10c0-9 10-18 10-18s10 9 10 18z" fill="#0377bc"/><path id="Shape" d="m37 19c0 5.523-3.134 10-7 10s-7-4.477-7-10c0-9 7-18 7-18s7 9 7 18z" fill="#02a9f4"/><path id="Shape" d="m30 26c-3.8641657-.0044086-6.9955914-3.1358343-7-7 0-.5522847.4477153-1 1-1s1 .4477153 1 1c.0033061 2.7600532 2.2399468 4.9966939 5 5 .5522847 0 1 .4477153 1 1s-.4477153 1-1 1z" fill="#f5f5f5"/><path id="Shape" d="m15 21.857c.0388572 3.9052276-3.0947851 7.1028857-7 7.143-3.90521486-.0401143-7.03885715-3.2377724-7-7.143 0-6.428 7-12.857 7-12.857s7 6.429 7 12.857z" fill="#0377bc"/><path id="Shape" d="m12 21.857c0 3.943-1.791 7.143-4 7.143s-4-3.2-4-7.143c0-6.428 4-12.857 4-12.857s4 6.429 4 12.857z" fill="#02a9f4"/><path id="Shape" d="m8 26c-2.24746741-.0421531-4.03678451-1.8954383-4-4.143 0-.5522847.44771525-1 1-1s1 .4477153 1 1c-.03710914 1.1431658.85699611 2.1011996 2 2.143.55228475 0 1 .4477153 1 1s-.44771525 1-1 1z" fill="#f5f5f5"/><path id="Shape" d="m59 21.857c0 3.8659932-3.1340068 7-7 7s-7-3.1340068-7-7c0-6.428 7-12.857 7-12.857s7 6.429 7 12.857z" fill="#0377bc"/><path id="Shape" d="m56 21.857c0 3.943-1.791 7.143-4 7.143s-4-3.2-4-7.143c0-6.428 4-12.857 4-12.857s4 6.429 4 12.857z" fill="#02a9f4"/><path id="Shape" d="m52 26c-2.2474674-.0421531-4.0367845-1.8954383-4-4.143 0-.5522847.4477153-1 1-1s1 .4477153 1 1c-.0371091 1.1431658.8569961 2.1011996 2 2.143.5522847 0 1 .4477153 1 1s-.4477153 1-1 1z" fill="#f5f5f5"/><path id="Shape" d="m35 39h-3v6h-4v-6h-3l5-6z" fill="#e91e63"/><path id="Shape" d="m53 39h-3v6h-4v-6h-3l5-6z" fill="#e91e63"/><path id="Shape" d="m17 39h-3v6h-4v-6h-3l5-6z" fill="#e91e63"/><g fill="#000"><path id="Shape" d="m0 57c0 1.6568542 1.34314575 3 3 3h54c1.6568542 0 3-1.3431458 3-3s-1.3431458-3-3-3h-2.132l2.706-4.058c1.5104137-.3013189 2.5472744-1.6974466 2.3991821-3.2304865-.1480924-1.5330398-1.4330202-2.7048817-2.9731821-2.7115135h-6v-4h2c.3879065-.0001454.7407342-.2246105.9052432-.5759056.1645089-.3512952.111017-.7660368-.1372432-1.0640944l-5-6c-.1959066-.2177862-.4750662-.3421563-.768-.3421563s-.5720934.1243701-.768.3421563l-5 6c-.2482602.2980576-.3017521.7127992-.1372432 1.0640944.164509.3512951.5173367.5757602.9052432.5759056h2v4h-12v-4h2c.3879065-.0001454.7407342-.2246105.9052432-.5759056.1645089-.3512952.111017-.7660368-.1372432-1.0640944l-5-6c-.1959066-.2177862-.4750662-.3421563-.768-.3421563s-.5720934.1243701-.768.3421563l-5 6c-.2482602.2980576-.3017521.7127992-.1372432 1.0640944.164509.3512951.5173367.5757602.9052432.5759056h2v4h-12v-4h2c.3879065-.0001454.7407342-.2246105.9052432-.5759056.1645089-.3512952.111017-.7660368-.1372432-1.0640944l-5-6c-.1959066-.2177862-.4750662-.3421563-.768-.3421563s-.5720934.1243701-.768.3421563l-5 6c-.24826022.2980576-.30175214.7127992-.13724319 1.0640944.16450896.3512951.51733667.5757602.90524319.5759056h2v4h-6c-1.6568542.0000001-2.99999987 1.3431458-2.99999987 3s1.34314567 2.9999999 2.99999987 3h2.132l-2.706 4.058c-1.40807163.2744815-2.42476839 1.5074254-2.426 2.942zm58 0c0 .5522847-.4477153 1-1 1h-54c-.55228475 0-1-.4477153-1-1s.44771525-1 1-1h54c.5522847 0 1 .4477153 1 1zm-42.868-7-2.667 4h-2.6l2.667-4zm29.736 4 2.667-4h2.6l-2.667 4zm-2.4 0h-2.6l2.667-4h2.6zm-5 0h-2.6l2.667-4h2.6zm-5 0h-2.6l2.667-4h2.6zm-5 0h-2.6l2.667-4h2.6zm-5 0h-2.6l2.667-4h2.6zm-5 0h-2.6l2.667-4h2.6zm32.4 0 2.667-4h2.6l-2.667 4zm-3.868-16h-.865l2.865-3.438 2.865 3.438h-.865c-.5522847 0-1 .4477153-1 1v5h-2v-5c0-.5522847-.4477153-1-1-1zm-18 0h-.865l2.865-3.438 2.865 3.438h-.865c-.5522847 0-1 .4477153-1 1v5h-2v-5c0-.5522847-.4477153-1-1-1zm-18 0h-.865l2.865-3.438 2.865 3.438h-.865c-.5522847 0-1 .4477153-1 1v5h-2v-5c0-.5522847-.4477153-1-1-1zm-8 9c0-.5522847.44771525-1 1-1h54c.5522847 0 1 .4477153 1 1s-.4477153 1-1 1h-54c-.55228475 0-1-.4477153-1-1zm8.132 3-2.667 4h-2.6l2.667-4z"/><path id="Shape" d="m30 30c6.0721626-.0071635 10.9928365-4.9278374 11-11 0-9.338-9.909-18.364-10.331-18.743-.3803157-.3423168-.9576843-.3423168-1.338 0-.422.379-10.331 9.405-10.331 18.743.0071635 6.0721626 4.9278374 10.9928365 11 11zm0-27.615c2.191 2.168 9 9.483 9 16.615 0 4.9705627-4.0294373 9-9 9s-9-4.0294373-9-9c0-7.122 6.811-14.445 9-16.615z"/><path id="Shape" d="m8 30c4.4553907-.0450781 8.0338574-3.6875099 8-8.143 0-6.79-7.024-13.319-7.324-13.593-.38240162-.35079784-.96959838-.35079784-1.352 0-.3.274-7.324 6.803-7.324 13.593-.03385743 4.4554901 3.54460928 8.0979219 8 8.143zm0-19.592c1.7 1.755 6 6.673 6 11.449.0355687 3.3516258-2.6484661 6.09963-6 6.143-3.35153389-.04337-6.03556866-2.7913742-6-6.143 0-4.766 4.3-9.692 6-11.449z"/><path id="Shape" d="m52 30c4.4553907-.0450781 8.0338574-3.6875099 8-8.143 0-6.79-7.024-13.319-7.324-13.593-.3824016-.35079784-.9695984-.35079784-1.352 0-.3.274-7.324 6.8-7.324 13.593-.0338574 4.4554901 3.5446093 8.0979219 8 8.143zm0-19.592c1.7 1.755 6 6.673 6 11.449 0 3.3137085-2.6862915 6-6 6s-6-2.6862915-6-6c0-4.766 4.3-9.692 6-11.449z"/></g></g></g></svg>